<svg width="276" height="90" viewBox="0 0 276 90" fill="none" xmlns="http://www.w3.org/2000/svg">
<g filter="url(#filter0_d_3_36)">
<rect x="5" y="3" width="266" height="80" rx="40" fill="#3F41A6"/>
<path d="M67.56 40.1C67.2 39.4067 66.7 38.8867 66.06 38.54C65.42 38.18 64.68 38 63.84 38C62.92 38 62.1 38.2067 61.38 38.62C60.66 39.0333 60.0933 39.62 59.68 40.38C59.28 41.14 59.08 42.02 59.08 43.02C59.08 44.02 59.28 44.9067 59.68 45.68C60.0933 46.44 60.66 47.0267 61.38 47.44C62.1 47.8533 62.92 48.06 63.84 48.06C65.08 48.06 66.0867 47.7133 66.86 47.02C67.6333 46.3267 68.1067 45.3867 68.28 44.2H63.06V42.38H70.72V44.16C70.5733 45.24 70.1867 46.2333 69.56 47.14C68.9467 48.0467 68.14 48.7733 67.14 49.32C66.1533 49.8533 65.0533 50.12 63.84 50.12C62.5333 50.12 61.34 49.82 60.26 49.22C59.18 48.6067 58.32 47.76 57.68 46.68C57.0533 45.6 56.74 44.38 56.74 43.02C56.74 41.66 57.0533 40.44 57.68 39.36C58.32 38.28 59.18 37.44 60.26 36.84C61.3533 36.2267 62.5467 35.92 63.84 35.92C65.32 35.92 66.6333 36.2867 67.78 37.02C68.94 37.74 69.78 38.7667 70.3 40.1H67.56ZM83.0688 44.22C83.0688 44.6333 83.0421 45.0067 82.9888 45.34H74.5688C74.6354 46.22 74.9621 46.9267 75.5488 47.46C76.1354 47.9933 76.8554 48.26 77.7088 48.26C78.9354 48.26 79.8021 47.7467 80.3088 46.72H82.7687C82.4354 47.7333 81.8288 48.5667 80.9488 49.22C80.0821 49.86 79.0021 50.18 77.7088 50.18C76.6554 50.18 75.7088 49.9467 74.8688 49.48C74.0421 49 73.3888 48.3333 72.9088 47.48C72.4421 46.6133 72.2088 45.6133 72.2088 44.48C72.2088 43.3467 72.4354 42.3533 72.8888 41.5C73.3554 40.6333 74.0021 39.9667 74.8288 39.5C75.6688 39.0333 76.6288 38.8 77.7088 38.8C78.7488 38.8 79.6754 39.0267 80.4888 39.48C81.3021 39.9333 81.9354 40.5733 82.3888 41.4C82.8421 42.2133 83.0688 43.1533 83.0688 44.22ZM80.6888 43.5C80.6754 42.66 80.3754 41.9867 79.7888 41.48C79.2021 40.9733 78.4754 40.72 77.6088 40.72C76.8221 40.72 76.1488 40.9733 75.5888 41.48C75.0288 41.9733 74.6954 42.6467 74.5888 43.5H80.6888ZM87.9725 40.84V46.94C87.9725 47.3533 88.0658 47.6533 88.2525 47.84C88.4525 48.0133 88.7858 48.1 89.2525 48.1H90.6525V50H88.8525C87.8258 50 87.0392 49.76 86.4925 49.28C85.9458 48.8 85.6725 48.02 85.6725 46.94V40.84H84.3725V38.98H85.6725V36.24H87.9725V38.98H90.6525V40.84H87.9725ZM99.1092 37.52C98.6959 37.52 98.3492 37.38 98.0692 37.1C97.7892 36.82 97.6492 36.4733 97.6492 36.06C97.6492 35.6467 97.7892 35.3 98.0692 35.02C98.3492 34.74 98.6959 34.6 99.1092 34.6C99.5092 34.6 99.8492 34.74 100.129 35.02C100.409 35.3 100.549 35.6467 100.549 36.06C100.549 36.4733 100.409 36.82 100.129 37.1C99.8492 37.38 99.5092 37.52 99.1092 37.52ZM100.229 38.98V50H97.9492V38.98H100.229ZM108.783 38.8C109.649 38.8 110.423 38.98 111.103 39.34C111.796 39.7 112.336 40.2333 112.723 40.94C113.109 41.6467 113.303 42.5 113.303 43.5V50H111.043V43.84C111.043 42.8533 110.796 42.1 110.303 41.58C109.809 41.0467 109.136 40.78 108.283 40.78C107.429 40.78 106.749 41.0467 106.243 41.58C105.749 42.1 105.503 42.8533 105.503 43.84V50H103.223V38.98H105.503V40.24C105.876 39.7867 106.349 39.4333 106.923 39.18C107.509 38.9267 108.129 38.8 108.783 38.8ZM130.386 36.1V37.96H126.686V50H124.406V37.96H120.686V36.1H130.386ZM137.475 50.18C136.435 50.18 135.495 49.9467 134.655 49.48C133.815 49 133.155 48.3333 132.675 47.48C132.195 46.6133 131.955 45.6133 131.955 44.48C131.955 43.36 132.202 42.3667 132.695 41.5C133.189 40.6333 133.862 39.9667 134.715 39.5C135.569 39.0333 136.522 38.8 137.575 38.8C138.629 38.8 139.582 39.0333 140.435 39.5C141.289 39.9667 141.962 40.6333 142.455 41.5C142.949 42.3667 143.195 43.36 143.195 44.48C143.195 45.6 142.942 46.5933 142.435 47.46C141.929 48.3267 141.235 49 140.355 49.48C139.489 49.9467 138.529 50.18 137.475 50.18ZM137.475 48.2C138.062 48.2 138.609 48.06 139.115 47.78C139.635 47.5 140.055 47.08 140.375 46.52C140.695 45.96 140.855 45.28 140.855 44.48C140.855 43.68 140.702 43.0067 140.395 42.46C140.089 41.9 139.682 41.48 139.175 41.2C138.669 40.92 138.122 40.78 137.535 40.78C136.949 40.78 136.402 40.92 135.895 41.2C135.402 41.48 135.009 41.9 134.715 42.46C134.422 43.0067 134.275 43.68 134.275 44.48C134.275 45.6667 134.575 46.5867 135.175 47.24C135.789 47.88 136.555 48.2 137.475 48.2ZM155.429 38.98V50H153.149V48.7C152.789 49.1533 152.316 49.5133 151.729 49.78C151.156 50.0333 150.543 50.16 149.889 50.16C149.023 50.16 148.243 49.98 147.549 49.62C146.869 49.26 146.329 48.7267 145.929 48.02C145.543 47.3133 145.349 46.46 145.349 45.46V38.98H147.609V45.12C147.609 46.1067 147.856 46.8667 148.349 47.4C148.843 47.92 149.516 48.18 150.369 48.18C151.223 48.18 151.896 47.92 152.389 47.4C152.896 46.8667 153.149 46.1067 153.149 45.12V38.98H155.429ZM157.678 44.48C157.678 43.3467 157.904 42.3533 158.358 41.5C158.824 40.6333 159.464 39.9667 160.278 39.5C161.091 39.0333 162.024 38.8 163.078 38.8C164.411 38.8 165.511 39.12 166.378 39.76C167.258 40.3867 167.851 41.2867 168.158 42.46H165.698C165.498 41.9133 165.178 41.4867 164.738 41.18C164.298 40.8733 163.744 40.72 163.078 40.72C162.144 40.72 161.398 41.0533 160.838 41.72C160.291 42.3733 160.018 43.2933 160.018 44.48C160.018 45.6667 160.291 46.5933 160.838 47.26C161.398 47.9267 162.144 48.26 163.078 48.26C164.398 48.26 165.271 47.68 165.698 46.52H168.158C167.838 47.64 167.238 48.5333 166.358 49.2C165.478 49.8533 164.384 50.18 163.078 50.18C162.024 50.18 161.091 49.9467 160.278 49.48C159.464 49 158.824 48.3333 158.358 47.48C157.904 46.6133 157.678 45.6133 157.678 44.48ZM176.13 38.8C176.97 38.8 177.716 38.98 178.37 39.34C179.036 39.7 179.556 40.2333 179.93 40.94C180.316 41.6467 180.51 42.5 180.51 43.5V50H178.25V43.84C178.25 42.8533 178.003 42.1 177.51 41.58C177.016 41.0467 176.343 40.78 175.49 40.78C174.636 40.78 173.956 41.0467 173.45 41.58C172.956 42.1 172.71 42.8533 172.71 43.84V50H170.43V35.2H172.71V40.26C173.096 39.7933 173.583 39.4333 174.17 39.18C174.77 38.9267 175.423 38.8 176.13 38.8Z" fill="white"/>
<circle cx="205" cy="43" r="15" fill="#F9F9FC" fill-opacity="0.35"/>
<path d="M202 37L203.5 38.5L208 43L202 49" stroke="white"/>
</g>
<defs>
<filter id="filter0_d_3_36" x="0" y="0" width="276" height="90" filterUnits="userSpaceOnUse" color-interpolation-filters="sRGB">
<feFlood flood-opacity="0" result="BackgroundImageFix"/>
<feColorMatrix in="SourceAlpha" type="matrix" values="0 0 0 0 0 0 0 0 0 0 0 0 0 0 0 0 0 0 127 0" result="hardAlpha"/>
<feOffset dy="2"/>
<feGaussianBlur stdDeviation="2.5"/>
<feComposite in2="hardAlpha" operator="out"/>
<feColorMatrix type="matrix" values="0 0 0 0 0 0 0 0 0 0 0 0 0 0 0 0 0 0 0.25 0"/>
<feBlend mode="normal" in2="BackgroundImageFix" result="effect1_dropShadow_3_36"/>
<feBlend mode="normal" in="SourceGraphic" in2="effect1_dropShadow_3_36" result="shape"/>
</filter>
</defs>
</svg>
