<svg width="174" height="57" viewBox="0 0 174 57" fill="none" xmlns="http://www.w3.org/2000/svg">
<rect x="1" y="1" width="171.82" height="55" rx="21.5" stroke="#3F41A6" stroke-width="2"/>
<path d="M18.63 28.7C18.63 27.464 18.906 26.36 19.458 25.388C20.022 24.404 20.784 23.642 21.744 23.102C22.716 22.55 23.802 22.274 25.002 22.274C26.406 22.274 27.636 22.634 28.692 23.354C29.748 24.074 30.486 25.07 30.906 26.342H28.008C27.72 25.742 27.312 25.292 26.784 24.992C26.268 24.692 25.668 24.542 24.984 24.542C24.252 24.542 23.598 24.716 23.022 25.064C22.458 25.4 22.014 25.88 21.69 26.504C21.378 27.128 21.222 27.86 21.222 28.7C21.222 29.528 21.378 30.26 21.69 30.896C22.014 31.52 22.458 32.006 23.022 32.354C23.598 32.69 24.252 32.858 24.984 32.858C25.668 32.858 26.268 32.708 26.784 32.408C27.312 32.096 27.72 31.64 28.008 31.04H30.906C30.486 32.324 29.748 33.326 28.692 34.046C27.648 34.754 26.418 35.108 25.002 35.108C23.802 35.108 22.716 34.838 21.744 34.298C20.784 33.746 20.022 32.984 19.458 32.012C18.906 31.04 18.63 29.936 18.63 28.7ZM37.4864 35.162C36.5264 35.162 35.6624 34.952 34.8944 34.532C34.1264 34.1 33.5204 33.494 33.0764 32.714C32.6444 31.934 32.4284 31.034 32.4284 30.014C32.4284 28.994 32.6504 28.094 33.0944 27.314C33.5504 26.534 34.1684 25.934 34.9484 25.514C35.7284 25.082 36.5984 24.866 37.5584 24.866C38.5184 24.866 39.3884 25.082 40.1684 25.514C40.9484 25.934 41.5604 26.534 42.0044 27.314C42.4604 28.094 42.6884 28.994 42.6884 30.014C42.6884 31.034 42.4544 31.934 41.9864 32.714C41.5304 33.494 40.9064 34.1 40.1144 34.532C39.3344 34.952 38.4584 35.162 37.4864 35.162ZM37.4864 32.966C37.9424 32.966 38.3684 32.858 38.7644 32.642C39.1724 32.414 39.4964 32.078 39.7364 31.634C39.9764 31.19 40.0964 30.65 40.0964 30.014C40.0964 29.066 39.8444 28.34 39.3404 27.836C38.8484 27.32 38.2424 27.062 37.5224 27.062C36.8024 27.062 36.1964 27.32 35.7044 27.836C35.2244 28.34 34.9844 29.066 34.9844 30.014C34.9844 30.962 35.2184 31.694 35.6864 32.21C36.1664 32.714 36.7664 32.966 37.4864 32.966ZM50.0629 24.884C51.2509 24.884 52.2109 25.262 52.9429 26.018C53.6749 26.762 54.0409 27.806 54.0409 29.15V35H51.5209V29.492C51.5209 28.7 51.3229 28.094 50.9269 27.674C50.5309 27.242 49.9909 27.026 49.3069 27.026C48.6109 27.026 48.0589 27.242 47.6509 27.674C47.2549 28.094 47.0569 28.7 47.0569 29.492V35H44.5369V25.028H47.0569V26.27C47.3929 25.838 47.8189 25.502 48.3349 25.262C48.8629 25.01 49.4389 24.884 50.0629 24.884ZM59.3713 27.098V31.922C59.3713 32.258 59.4493 32.504 59.6053 32.66C59.7733 32.804 60.0493 32.876 60.4333 32.876H61.6033V35H60.0193C57.8953 35 56.8333 33.968 56.8333 31.904V27.098H55.6453V25.028H56.8333V22.562H59.3713V25.028H61.6033V27.098H59.3713ZM62.7678 29.978C62.7678 28.97 62.9658 28.076 63.3618 27.296C63.7698 26.516 64.3158 25.916 64.9998 25.496C65.6958 25.076 66.4698 24.866 67.3218 24.866C68.0658 24.866 68.7138 25.016 69.2658 25.316C69.8298 25.616 70.2798 25.994 70.6158 26.45V25.028H73.1538V35H70.6158V33.542C70.2918 34.01 69.8418 34.4 69.2658 34.712C68.7018 35.012 68.0478 35.162 67.3038 35.162C66.4638 35.162 65.6958 34.946 64.9998 34.514C64.3158 34.082 63.7698 33.476 63.3618 32.696C62.9658 31.904 62.7678 30.998 62.7678 29.978ZM70.6158 30.014C70.6158 29.402 70.4958 28.88 70.2558 28.448C70.0158 28.004 69.6918 27.668 69.2838 27.44C68.8758 27.2 68.4378 27.08 67.9698 27.08C67.5018 27.08 67.0698 27.194 66.6738 27.422C66.2778 27.65 65.9538 27.986 65.7018 28.43C65.4618 28.862 65.3418 29.378 65.3418 29.978C65.3418 30.578 65.4618 31.106 65.7018 31.562C65.9538 32.006 66.2778 32.348 66.6738 32.588C67.0818 32.828 67.5138 32.948 67.9698 32.948C68.4378 32.948 68.8758 32.834 69.2838 32.606C69.6918 32.366 70.0158 32.03 70.2558 31.598C70.4958 31.154 70.6158 30.626 70.6158 30.014ZM74.967 30.014C74.967 28.982 75.177 28.082 75.597 27.314C76.017 26.534 76.599 25.934 77.343 25.514C78.087 25.082 78.939 24.866 79.899 24.866C81.135 24.866 82.155 25.178 82.959 25.802C83.775 26.414 84.321 27.278 84.597 28.394H81.879C81.735 27.962 81.489 27.626 81.141 27.386C80.805 27.134 80.385 27.008 79.881 27.008C79.161 27.008 78.591 27.272 78.171 27.8C77.751 28.316 77.541 29.054 77.541 30.014C77.541 30.962 77.751 31.7 78.171 32.228C78.591 32.744 79.161 33.002 79.881 33.002C80.901 33.002 81.567 32.546 81.879 31.634H84.597C84.321 32.714 83.775 33.572 82.959 34.208C82.143 34.844 81.123 35.162 79.899 35.162C78.939 35.162 78.087 34.952 77.343 34.532C76.599 34.1 76.017 33.5 75.597 32.732C75.177 31.952 74.967 31.046 74.967 30.014ZM89.3772 27.098V31.922C89.3772 32.258 89.4552 32.504 89.6112 32.66C89.7792 32.804 90.0552 32.876 90.4392 32.876H91.6092V35H90.0252C87.9012 35 86.8392 33.968 86.8392 31.904V27.098H85.6512V25.028H86.8392V22.562H89.3772V25.028H91.6092V27.098H89.3772ZM100.195 22.436V30.212C100.195 31.064 100.417 31.718 100.861 32.174C101.305 32.618 101.929 32.84 102.733 32.84C103.549 32.84 104.179 32.618 104.623 32.174C105.067 31.718 105.289 31.064 105.289 30.212V22.436H107.827V30.194C107.827 31.262 107.593 32.168 107.125 32.912C106.669 33.644 106.051 34.196 105.271 34.568C104.503 34.94 103.645 35.126 102.697 35.126C101.761 35.126 100.909 34.94 100.141 34.568C99.3848 34.196 98.7848 33.644 98.3408 32.912C97.8968 32.168 97.6748 31.262 97.6748 30.194V22.436H100.195ZM114.078 35.162C113.262 35.162 112.53 35.018 111.882 34.73C111.234 34.43 110.718 34.028 110.334 33.524C109.962 33.02 109.758 32.462 109.722 31.85H112.26C112.308 32.234 112.494 32.552 112.818 32.804C113.154 33.056 113.568 33.182 114.06 33.182C114.54 33.182 114.912 33.086 115.176 32.894C115.452 32.702 115.59 32.456 115.59 32.156C115.59 31.832 115.422 31.592 115.086 31.436C114.762 31.268 114.24 31.088 113.52 30.896C112.776 30.716 112.164 30.53 111.684 30.338C111.216 30.146 110.808 29.852 110.46 29.456C110.124 29.06 109.956 28.526 109.956 27.854C109.956 27.302 110.112 26.798 110.424 26.342C110.748 25.886 111.204 25.526 111.792 25.262C112.392 24.998 113.094 24.866 113.898 24.866C115.086 24.866 116.034 25.166 116.742 25.766C117.45 26.354 117.84 27.152 117.912 28.16H115.5C115.464 27.764 115.296 27.452 114.996 27.224C114.708 26.984 114.318 26.864 113.826 26.864C113.37 26.864 113.016 26.948 112.764 27.116C112.524 27.284 112.404 27.518 112.404 27.818C112.404 28.154 112.572 28.412 112.908 28.592C113.244 28.76 113.766 28.934 114.474 29.114C115.194 29.294 115.788 29.48 116.256 29.672C116.724 29.864 117.126 30.164 117.462 30.572C117.81 30.968 117.99 31.496 118.002 32.156C118.002 32.732 117.84 33.248 117.516 33.704C117.204 34.16 116.748 34.52 116.148 34.784C115.56 35.036 114.87 35.162 114.078 35.162Z" fill="#3F41A6"/>
<circle cx="142" cy="28.5" r="15" fill="#EBEBF0" fill-opacity="0.35"/>
<path d="M139 22.5L140.5 24L145 28.5L139 34.5" stroke="#3F41A6"/>
</svg>
